#Comment line ignore any data following # character 
#Hierarchical Translation and Rotation (.htr) file 
[Header]	
#Header keywords are followed by a single value 
FileType HTR		#Single word string
DataType HTRS		#Translation followed by rotation and scale data
FileVersion 1		#integer
NumSegments 64		#integer
NumFrames 3		#integer
DataFrameRate 30		#integer, data frame rate in this file
EulerRotationOrder ZYX
CalibrationUnits mm
RotationUnits Degrees
GlobalAxisofGravity Y
BoneLengthAxis Y
ScaleFactor 1.00
[SegmentNames&Hierarchy]
#CHILD	PARENT
Pinger_Root GLOBAL
Pelvis Pinger_Root
L_Hip Pelvis
R_Hip Pelvis
Rear_Leg01 Pelvis
Spine1 Pelvis
L_Leg01 L_Hip
L_Leg02 L_Leg01
L_Leg03 L_Leg02
L_Foot L_Leg03
L_Toe1_01 L_Foot
L_Toe2_01 L_Foot
L_Toe3_01 L_Foot
planeAlignerLeft L_Foot
L_Toe1_02 L_Toe1_01
L_Toe1_03 L_Toe1_02
L_Toe2_02 L_Toe2_01
L_Toe2_03 L_Toe2_02
L_Toe3_02 L_Toe3_01
L_Toe3_03 L_Toe3_02
planeLockWeightLeft planeAlignerLeft
R_Leg01 R_Hip
R_Leg02 R_Leg01
R_Leg03 R_Leg02
R_Foot R_Leg03
planeAlignerRight R_Foot
R_Toe1_01 R_Foot
R_Toe2_01 R_Foot
R_Toe3_01 R_Foot
planeLockWeightRight planeAlignerRight
R_Toe1_02 R_Toe1_01
R_Toe1_03 R_Toe1_02
R_Toe2_02 R_Toe2_01
R_Toe2_03 R_Toe2_02
R_Toe3_02 R_Toe3_01
R_Toe3_03 R_Toe3_02
Rear_Leg02 Rear_Leg01
Rear_Leg03 Rear_Leg02
Rear_Leg04 Rear_Leg03
Rear_Foot Rear_Leg04
planeAlignerCenter Rear_Foot
Rear_Toe1_01 Rear_Foot
Rear_Toe2_01 Rear_Foot
Rear_Toe3_01 Rear_Foot
planeLockWeightCenter planeAlignerCenter
Rear_Toe1_02 Rear_Toe1_01
Rear_Toe1_03 Rear_Toe1_02
Rear_Toe2_02 Rear_Toe2_01
Rear_Toe2_03 Rear_Toe2_02
Rear_Toe3_02 Rear_Toe3_01
Rear_Toe3_03 Rear_Toe3_02
Back_Bone Spine1
Head Spine1
Motor_Bone Back_Bone
Ping_Mechanism Back_Bone
BN_LookIK Head
bottomMouth Head
L_Mouth01 Head
L_mouthFront Head
mouthGun Head
R_Mouth01 Head
R_mouthFront Head
TopMouth Head
weapon_bone Head
[BasePosition]
#SegmentName Tx, Ty, Tz, Rx, Ry, Rz, BoneLength
Pinger_Root 0.000000 0.000000 0.000000 -90.000000 0.000000 0.000000 10.000000 
Pelvis 0.000000 0.000000 0.000000 0.000000 0.000000 0.000000 10.000000 
L_Hip 0.000000 0.000000 0.000000 0.000000 0.000000 0.000000 10.000000 
R_Hip 0.000000 0.000000 0.000000 0.000000 0.000000 0.000000 10.000000 
Rear_Leg01 0.000000 0.000000 0.000000 0.000000 0.000000 0.000000 10.000000 
Spine1 0.000000 0.000000 0.000000 0.000000 0.000000 0.000000 10.000000 
L_Leg01 0.000000 0.000000 0.000000 0.000000 0.000000 0.000000 10.000000 
L_Leg02 0.000000 0.000000 0.000000 0.000000 0.000000 0.000000 10.000000 
L_Leg03 0.000000 0.000000 0.000000 0.000000 0.000000 0.000000 10.000000 
L_Foot 0.000000 0.000000 0.000000 0.000000 0.000000 0.000000 10.000000 
L_Toe1_01 0.000000 0.000000 0.000000 0.000000 0.000000 0.000000 10.000000 
L_Toe2_01 0.000000 0.000000 0.000000 0.000000 0.000000 0.000000 10.000000 
L_Toe3_01 0.000000 0.000000 0.000000 0.000000 0.000000 0.000000 10.000000 
planeAlignerLeft 0.000000 0.000000 0.000000 0.000000 0.000000 0.000000 10.000000 
L_Toe1_02 0.000000 0.000000 0.000000 0.000000 0.000000 0.000000 10.000000 
L_Toe1_03 0.000000 0.000000 0.000000 0.000000 0.000000 0.000000 10.000000 
L_Toe2_02 0.000000 0.000000 0.000000 0.000000 0.000000 0.000000 10.000000 
L_Toe2_03 0.000000 0.000000 0.000000 0.000000 0.000000 0.000000 10.000000 
L_Toe3_02 0.000000 0.000000 0.000000 0.000000 0.000000 0.000000 10.000000 
L_Toe3_03 0.000000 0.000000 0.000000 0.000000 0.000000 0.000000 10.000000 
planeLockWeightLeft 0.000000 0.000000 0.000000 0.000000 0.000000 0.000000 10.000000 
R_Leg01 0.000000 0.000000 0.000000 0.000000 0.000000 0.000000 10.000000 
R_Leg02 0.000000 0.000000 0.000000 0.000000 0.000000 0.000000 10.000000 
R_Leg03 0.000000 0.000000 0.000000 0.000000 0.000000 0.000000 10.000000 
R_Foot 0.000000 0.000000 0.000000 0.000000 0.000000 0.000000 10.000000 
planeAlignerRight 0.000000 0.000000 0.000000 0.000000 0.000000 0.000000 10.000000 
R_Toe1_01 0.000000 0.000000 0.000000 0.000000 0.000000 0.000000 10.000000 
R_Toe2_01 0.000000 0.000000 0.000000 0.000000 0.000000 0.000000 10.000000 
R_Toe3_01 0.000000 0.000000 0.000000 0.000000 0.000000 0.000000 10.000000 
planeLockWeightRight 0.000000 0.000000 0.000000 0.000000 0.000000 0.000000 10.000000 
R_Toe1_02 0.000000 0.000000 0.000000 0.000000 0.000000 0.000000 10.000000 
R_Toe1_03 0.000000 0.000000 0.000000 0.000000 0.000000 0.000000 10.000000 
R_Toe2_02 0.000000 0.000000 0.000000 0.000000 0.000000 0.000000 10.000000 
R_Toe2_03 0.000000 0.000000 0.000000 0.000000 0.000000 0.000000 10.000000 
R_Toe3_02 0.000000 0.000000 0.000000 0.000000 0.000000 0.000000 10.000000 
R_Toe3_03 0.000000 0.000000 0.000000 0.000000 0.000000 0.000000 10.000000 
Rear_Leg02 0.000000 0.000000 0.000000 0.000000 0.000000 0.000000 10.000000 
Rear_Leg03 0.000000 0.000000 0.000000 0.000000 0.000000 0.000000 10.000000 
Rear_Leg04 0.000000 0.000000 0.000000 0.000000 0.000000 0.000000 10.000000 
Rear_Foot 0.000000 0.000000 0.000000 0.000000 0.000000 0.000000 10.000000 
planeAlignerCenter 0.000000 0.000000 0.000000 0.000000 0.000000 0.000000 10.000000 
Rear_Toe1_01 0.000000 0.000000 0.000000 0.000000 0.000000 0.000000 10.000000 
Rear_Toe2_01 0.000000 0.000000 0.000000 0.000000 0.000000 0.000000 10.000000 
Rear_Toe3_01 0.000000 0.000000 0.000000 0.000000 0.000000 0.000000 10.000000 
planeLockWeightCenter 0.000000 0.000000 0.000000 0.000000 0.000000 0.000000 10.000000 
Rear_Toe1_02 0.000000 0.000000 0.000000 0.000000 0.000000 0.000000 10.000000 
Rear_Toe1_03 0.000000 0.000000 0.000000 0.000000 0.000000 0.000000 10.000000 
Rear_Toe2_02 0.000000 0.000000 0.000000 0.000000 0.000000 0.000000 10.000000 
Rear_Toe2_03 0.000000 0.000000 0.000000 0.000000 0.000000 0.000000 10.000000 
Rear_Toe3_02 0.000000 0.000000 0.000000 0.000000 0.000000 0.000000 10.000000 
Rear_Toe3_03 0.000000 0.000000 0.000000 0.000000 0.000000 0.000000 10.000000 
Back_Bone 0.000000 0.000000 0.000000 0.000000 0.000000 0.000000 10.000000 
Head 0.000000 0.000000 0.000000 0.000000 0.000000 0.000000 10.000000 
Motor_Bone 0.000000 0.000000 0.000000 0.000000 0.000000 0.000000 10.000000 
Ping_Mechanism 0.000000 0.000000 0.000000 0.000000 0.000000 0.000000 10.000000 
BN_LookIK 0.000000 0.000000 0.000000 0.000000 0.000000 0.000000 10.000000 
bottomMouth 0.000000 0.000000 0.000000 0.000000 0.000000 0.000000 10.000000 
L_Mouth01 0.000000 0.000000 0.000000 0.000000 0.000000 0.000000 10.000000 
L_mouthFront 0.000000 0.000000 0.000000 0.000000 0.000000 0.000000 10.000000 
mouthGun 0.000000 0.000000 0.000000 0.000000 0.000000 0.000000 10.000000 
R_Mouth01 0.000000 0.000000 0.000000 0.000000 0.000000 0.000000 10.000000 
R_mouthFront 0.000000 0.000000 0.000000 0.000000 0.000000 0.000000 10.000000 
TopMouth 0.000000 0.000000 0.000000 0.000000 0.000000 0.000000 10.000000 
weapon_bone 0.000000 0.000000 0.000000 0.000000 0.000000 0.000000 10.000000 
#Beginning of Data. Separated by tabs
#Fr	Tx	Ty	Tz	Rx	Ry	Rz	SF
[Pinger_Root]
9 0.000000 0.000000 0.000000 -0.000075 -0.000000 -0.000020 0.000000
10 0.000000 0.000000 0.000000 -0.000075 -0.000000 -0.000020 0.000000
11 0.000000 0.000000 0.000000 -0.000075 -0.000000 -0.000020 0.000000
[Pelvis]
9 89.104942 853.983765 4508.685547 -98.185059 -88.249557 90.586121 4589.713867
10 92.053932 821.363892 4607.883789 -75.071198 -88.481865 67.482117 4681.421387
11 94.114014 797.507751 4704.740234 -56.798130 -88.340469 49.215813 4772.782715
[L_Hip]
9 5.766392 125.831482 872.656799 160.158691 -45.484905 122.312202 881.701050
10 5.766392 125.831482 872.656799 160.158691 -45.484905 122.312202 881.701050
11 5.766392 125.831482 872.656799 160.158691 -45.484905 122.312202 881.701050
[R_Hip]
9 5.765438 125.836372 -872.654907 38.087841 49.812687 125.703735 881.699829
10 5.765438 125.836372 -872.654907 38.087841 49.812691 125.703735 881.699829
11 5.765438 125.836372 -872.654907 38.087841 49.812687 125.703735 881.699829
[Rear_Leg01]
9 -192.298416 -925.602966 -0.001907 169.785019 2.057308 -158.371933 945.367432
10 -192.298416 -925.602966 -0.001907 169.995102 2.494488 -159.152985 945.367432
11 -192.298416 -925.602966 -0.001907 170.199265 2.934457 -159.932663 945.367432
[Spine1]
9 290.604584 5.007505 0.000477 7.035120 -1.331276 23.808847 290.647736
10 290.604584 5.007505 0.000477 6.694886 -2.105970 25.693707 290.647736
11 290.604584 5.007505 0.000477 6.372951 -2.764704 27.036337 290.647736
[L_Leg01]
9 761.932007 -0.002384 -0.069261 22.510061 -17.947645 -7.594416 761.932068
10 761.932007 -0.002384 -0.069261 21.497507 -20.750696 -7.841742 761.932068
11 761.932007 -0.002384 -0.069261 21.282423 -22.196123 -10.367141 761.932068
[L_Leg02]
9 1441.140503 -0.000954 -0.000715 0.994285 -0.147492 -127.207550 1441.140503
10 1441.140503 -0.000954 -0.000715 -1.373204 0.488939 -124.286369 1441.140503
11 1441.140503 -0.000954 -0.000715 -3.271334 1.218017 -119.857361 1441.140503
[L_Leg03]
9 1686.963989 -0.000715 -0.000954 -0.000507 0.003646 110.551094 1686.963989
10 1686.963989 -0.000715 -0.000954 0.019175 -0.006148 105.551712 1686.963989
11 1686.963989 -0.000715 -0.000954 0.029383 -0.010240 102.451210 1686.963989
[L_Foot]
9 3041.570068 -30.715107 11.297464 1.590817 13.610124 56.841526 3041.746094
10 3041.570068 -30.715107 11.297464 1.134217 14.965638 57.531025 3041.746094
11 3041.570068 -30.715107 11.297464 0.841196 15.910528 57.420368 3041.746094
[L_Toe1_01]
9 -188.216690 -224.732346 -21.137953 93.809578 -7.072391 -173.207977 293.899567
10 -188.216690 -224.732346 -21.137953 93.813148 -7.073804 -173.251785 293.899567
11 -188.216690 -224.732346 -21.137953 93.816704 -7.075212 -173.295593 293.899567
[L_Toe2_01]
9 200.746536 -219.926590 148.838394 -90.577461 -27.079281 -50.874943 332.896027
10 200.746536 -219.926590 148.838394 -90.605225 -27.135803 -50.770947 332.896027
11 200.746536 -219.926590 148.838394 -90.633110 -27.192284 -50.666866 332.896027
[L_Toe3_01]
9 188.832520 -219.859131 -191.078659 -99.407127 14.208805 -65.535645 347.140900
10 188.832520 -219.859131 -191.078659 -99.378799 14.224324 -65.402397 347.140900
11 188.832520 -219.859131 -191.078659 -99.350433 14.239775 -65.269127 347.140900
[planeAlignerLeft]
9 29.561310 -566.678284 105.386673 169.306686 -76.298271 89.968506 577.152039
10 28.959959 -563.609253 106.140358 169.306686 -76.298271 89.968506 574.247192
11 28.705902 -562.442749 106.458008 169.306686 -76.298271 89.968506 573.148438
[L_Toe1_02]
9 413.761139 0.000477 0.000000 0.000203 -25.410625 -0.000182 413.761139
10 413.761139 0.000477 0.000000 0.000203 -25.410625 -0.000182 413.761139
11 413.761139 0.000477 0.000000 0.000203 -25.410625 -0.000182 413.761139
[L_Toe1_03]
9 464.317322 0.000358 -0.000089 0.003724 53.262375 0.003724 464.317322
10 464.317322 0.000358 -0.000089 0.003717 53.189522 0.003717 464.317322
11 464.317322 0.000358 -0.000089 0.003710 53.116692 0.003710 464.317322
[L_Toe2_02]
9 342.235809 -0.000477 0.000238 0.001186 -73.356865 0.001186 342.235809
10 342.235809 -0.000477 0.000238 0.001186 -73.476212 0.001186 342.235809
11 342.235809 -0.000477 0.000238 0.001186 -73.595558 0.001186 342.235809
[L_Toe2_03]
9 420.210846 -0.000715 0.000000 -0.036794 88.120384 -0.033297 420.210846
10 420.210846 -0.000715 0.000000 -0.044009 88.441154 -0.040512 420.210846
11 420.210846 -0.000715 0.000000 -0.047563 88.562508 -0.044066 420.210846
[L_Toe3_02]
9 329.270111 0.000954 0.000000 0.001177 -81.344238 0.001177 329.270111
10 329.270111 0.000954 0.000000 0.001177 -81.452179 0.001177 329.270111
11 329.270111 0.000954 0.000000 0.001177 -81.560120 0.001177 329.270111
[L_Toe3_03]
9 439.137451 -0.001907 0.000954 -179.997437 74.735695 -179.993912 439.137451
10 439.137451 -0.001907 0.000954 -179.997559 74.274437 -179.994034 439.137451
11 439.137451 -0.001907 0.000954 -179.997620 74.091652 -179.994080 439.137451
[planeLockWeightLeft]
9 999.998718 0.097961 0.076027 -0.011826 -0.004376 0.005620 999.998779
10 999.998718 0.097961 0.076027 -0.011826 -0.004376 0.005620 999.998779
11 999.998718 0.097961 0.076027 -0.011826 -0.004376 0.005620 999.998779
[R_Leg01]
9 761.455627 -0.001907 -0.000358 120.455238 -16.601395 31.845116 761.455688
10 761.455627 -0.001907 -0.000358 120.664528 -22.043936 30.289370 761.455688
11 761.455627 -0.001907 -0.000358 120.698593 -25.444345 29.503710 761.455688
[R_Leg02]
9 1441.140625 0.000000 -0.000238 -0.404214 -0.046960 -126.383774 1441.140625
10 1441.140625 0.000000 -0.000238 1.562460 -0.241803 -127.956123 1441.140625
11 1441.140625 0.000000 -0.000238 2.816342 -0.609672 -127.630379 1441.140625
[R_Leg03]
9 1686.963989 0.000954 0.001431 0.047174 -0.021360 123.199280 1686.963989
10 1686.963989 0.000954 0.001431 0.025246 -0.009716 117.243187 1686.963989
11 1686.963989 0.000954 0.001431 0.009164 -0.001809 112.328773 1686.963989
[R_Foot]
9 3041.560059 -30.531288 -11.204481 -0.832510 -24.891399 59.896553 3041.734131
10 3041.560059 -30.531288 -11.204481 -0.503862 -26.117981 61.647335 3041.734131
11 3041.560059 -30.531288 -11.204481 -0.442682 -27.158350 62.758400 3041.734131
[planeAlignerRight]
9 -130.981674 -547.468567 -317.629059 -36.577137 -71.339012 -64.343925 646.348389
10 -131.655579 -544.360046 -318.455963 -36.577137 -71.339012 -64.343925 644.263367
11 -131.938156 -543.177917 -318.803772 -36.577137 -71.339012 -64.343925 643.494995
[R_Toe1_01]
9 -188.383347 -224.864899 21.052242 76.785431 -0.215572 -174.181915 294.101532
10 -188.383347 -224.864899 21.052242 76.786362 -0.186286 -174.278732 294.101532
11 -188.383347 -224.864899 21.052242 76.787247 -0.157000 -174.375519 294.101532
[R_Toe2_01]
9 200.637817 -220.002121 -148.787384 -91.289215 33.750195 -57.863647 332.857574
10 200.637817 -220.002121 -148.787384 -91.236847 33.864620 -57.706219 332.857574
11 200.637817 -220.002121 -148.787384 -91.184036 33.978935 -57.548470 332.857574
[R_Toe3_01]
9 188.606735 -220.092957 191.126343 -73.332344 -8.771138 -72.155800 347.192566
10 188.606735 -220.092957 191.126343 -73.345177 -8.783506 -72.057442 347.192566
11 188.606735 -220.092957 191.126343 -73.358032 -8.795856 -71.959068 347.192566
[planeLockWeightRight]
9 999.999329 0.000000 0.076017 -0.011823 -0.004379 -0.000027 999.999329
10 999.999329 0.000000 0.076017 -0.011823 -0.004379 -0.000027 999.999329
11 999.999329 0.000000 0.076017 -0.011823 -0.004379 -0.000027 999.999329
[R_Toe1_02]
9 413.762085 0.000477 -0.000119 0.001395 -24.563313 0.001395 413.762085
10 413.762085 0.000477 -0.000119 0.001395 -24.551291 0.001395 413.762085
11 413.762085 0.000477 -0.000119 0.001395 -24.539272 0.001395 413.762085
[R_Toe1_03]
9 464.317810 0.000000 0.001088 0.006754 69.985329 0.006754 464.317810
10 464.317810 0.000000 0.001088 0.006754 69.985291 0.006754 464.317810
11 464.317810 0.000000 0.001088 0.006754 69.985291 0.006754 464.317810
[R_Toe2_02]
9 342.234741 -0.000954 0.000238 0.001194 -68.652458 0.001194 342.234741
10 342.234741 -0.000954 0.000238 0.001194 -68.709419 0.001194 342.234741
11 342.234741 -0.000954 0.000238 0.001194 -68.766357 0.001194 342.234741
[R_Toe2_03]
9 420.210846 0.000715 -0.000268 0.010018 76.544807 0.010018 420.210846
10 420.210846 0.000715 -0.000268 0.010276 76.884186 0.010276 420.210846
11 420.210846 0.000715 -0.000268 0.010376 77.010612 0.010376 420.210846
[R_Toe3_02]
9 329.270355 -0.000477 -0.000954 0.001182 -76.270782 0.001182 329.270355
10 329.270355 -0.000477 -0.000954 0.001182 -76.501579 0.001182 329.270355
11 329.270355 -0.000477 -0.000954 0.001182 -76.543602 0.001182 329.270355
[R_Toe3_03]
9 439.137939 0.000238 0.001431 -0.032651 87.868523 -0.029153 439.137939
10 439.137939 0.000238 0.001431 -0.043638 88.427414 -0.040141 439.137939
11 439.137939 0.000238 0.001431 -0.053963 88.738243 -0.050466 439.137939
[Rear_Leg02]
9 1162.777710 -0.029802 0.005960 0.591811 -2.927310 -122.797432 1162.777710
10 1162.777710 -0.029802 0.005960 0.448778 -2.952516 -119.922424 1162.777710
11 1162.777710 -0.029802 0.005960 0.286485 -2.974865 -116.677269 1162.777710
[Rear_Leg03]
9 607.192505 -0.013351 -0.073195 0.008577 -0.003406 64.038261 607.192505
10 607.192505 -0.013351 -0.073195 0.006498 -0.002039 63.052448 607.192505
11 607.192505 -0.013351 -0.073195 0.006521 -0.001966 61.775913 607.192505
[Rear_Leg04]
9 995.874512 -0.020504 -0.011921 -0.040473 -0.015278 57.911228 995.874573
10 995.874512 -0.020504 -0.011921 -0.040185 -0.016022 55.796661 995.874573
11 995.874512 -0.020504 -0.011921 -0.039851 -0.016858 53.413116 995.874573
[Rear_Foot]
9 3096.176270 -0.067472 -0.041425 -144.296295 85.639778 47.595097 3096.176270
10 3096.176270 -0.067472 -0.041425 -143.308685 85.687614 47.822231 3096.176270
11 3096.176270 -0.067472 -0.041425 -142.288162 85.742737 48.283676 3096.176270
[planeAlignerCenter]
9 1.039119 -19.123228 -751.235718 12.240772 -0.001473 179.998184 751.479858
10 1.039333 -19.808348 -748.240356 12.240772 -0.001473 179.998184 748.503235
11 1.038504 -20.096283 -747.104431 12.240772 -0.001473 179.998184 747.375366
[Rear_Toe1_01]
9 0.653352 83.966492 -371.173737 0.281195 39.917194 90.408844 380.553192
10 0.653352 83.966492 -371.173737 0.281684 39.794491 90.408295 380.553192
11 0.653352 83.966492 -371.173737 0.282175 39.671787 90.407715 380.553192
[Rear_Toe2_01]
9 178.200760 -294.826019 -362.060547 -7.395500 33.083050 -66.425179 499.765686
10 178.200760 -294.826019 -362.060547 -7.419044 32.924000 -66.447037 499.765686
11 178.200760 -294.826019 -362.060547 -7.442471 32.764946 -66.468788 499.765686
[Rear_Toe3_01]
9 -153.359680 -308.780914 -362.060852 3.401231 32.167477 -112.414330 499.952881
10 -153.359680 -308.780914 -362.060852 3.414843 31.998648 -112.398834 499.952881
11 -153.359680 -308.780914 -362.060852 3.416685 31.981583 -112.400497 499.952881
[planeLockWeightCenter]
9 1000.000000 0.000305 0.076256 -0.011814 -0.004373 -0.000015 1000.000000
10 1000.000000 0.000305 0.076256 -0.011814 -0.004373 -0.000015 1000.000000
11 1000.000000 0.000305 0.076256 -0.011814 -0.004373 -0.000015 1000.000000
[Rear_Toe1_02]
9 379.707825 0.194073 0.000477 -0.000303 -32.513981 0.006968 379.707855
10 379.707825 0.194073 0.000477 -0.000311 -32.618629 0.006973 379.707855
11 379.707825 0.194073 0.000477 -0.000310 -32.611408 0.006972 379.707855
[Rear_Toe1_03]
9 500.129700 0.165701 0.000119 -0.003859 57.217136 -0.000214 500.129761
10 500.129700 0.165701 0.000119 -0.003883 57.646164 -0.000242 500.129761
11 500.129700 0.165701 0.000119 -0.003908 58.075199 -0.000271 500.129761
[Rear_Toe2_02]
9 340.494507 0.000238 -0.000954 0.001191 -70.147392 0.001191 340.494507
10 340.494507 0.000238 -0.000954 0.001191 -70.162491 0.001191 340.494507
11 340.494507 0.000238 -0.000954 0.001191 -70.177574 0.001191 340.494507
[Rear_Toe2_03]
9 433.103577 0.000000 0.000238 0.006833 70.219177 0.006833 433.103546
10 433.103577 0.000000 0.000238 0.006834 70.222641 0.006834 433.103546
11 433.103577 0.000000 0.000238 0.006835 70.226097 0.006835 433.103546
[Rear_Toe3_02]
9 340.494141 -0.000358 -0.000477 0.008383 -67.518425 -0.009555 340.494171
10 340.494141 -0.000358 -0.000477 0.008388 -67.530342 -0.009560 340.494171
11 340.494141 -0.000358 -0.000477 0.008392 -67.542236 -0.009564 340.494171
[Rear_Toe3_03]
9 433.103577 0.001431 -0.000238 -0.001012 66.300446 -0.004585 433.103546
10 433.103577 0.001431 -0.000238 -0.001012 66.296227 -0.004585 433.103546
11 433.103577 0.001431 -0.000238 -0.001011 66.292007 -0.004584 433.103546
[Back_Bone]
9 1312.175781 -701.934692 0.000954 1.447829 0.218553 -94.186096 1488.125488
10 1312.175781 -701.934692 0.000954 1.440002 0.288407 -96.956619 1488.125488
11 1312.175781 -701.934692 0.000954 1.432512 0.341615 -98.974937 1488.125488
[Head]
9 1406.159424 809.709290 0.001431 -0.186822 -1.454882 8.578691 1622.625488
10 1406.159424 809.709290 0.001431 -0.247433 -1.448953 8.698488 1622.625488
11 1406.159424 809.709290 0.001431 -0.308030 -1.442896 8.818279 1622.625488
[Motor_Bone]
9 1158.364380 -417.834747 0.000477 -0.095385 0.076104 -105.915703 1231.419434
10 1158.364380 -417.834747 0.000477 -0.095385 0.076104 -105.915703 1231.419434
11 1158.364380 -417.834747 0.000477 -0.095385 0.076104 -105.915703 1231.419434
[Ping_Mechanism]
9 1234.480225 -356.004639 0.512791 0.000103 -0.000053 82.120995 1284.788330
10 1239.145020 -311.145020 3.613062 0.000103 -0.000053 82.120995 1277.616821
11 1245.607910 -257.255249 6.472254 0.000103 -0.000053 82.120995 1271.912354
[BN_LookIK]
9 193.241119 1380.371704 -0.002861 0.000000 89.965736 -31.038179 1393.832153
10 193.241119 1380.371704 -0.002861 0.000000 89.965736 -31.038179 1393.832153
11 193.241119 1380.371704 -0.002861 0.000000 89.965736 -31.038179 1393.832153
[bottomMouth]
9 -435.092926 615.759399 -0.000954 -0.000022 0.000016 73.527184 753.966492
10 -435.092926 615.759399 -0.000954 -0.000022 0.000016 73.527184 753.966492
11 -435.092926 615.759399 -0.000954 -0.000022 0.000016 73.527184 753.966492
[L_Mouth01]
9 554.440979 7.658243 838.222046 150.204178 23.759130 109.605339 1005.027161
10 554.440979 7.658243 838.222046 150.204178 23.759130 109.605339 1005.027161
11 554.440979 7.658243 838.222046 150.204178 23.759130 109.605339 1005.027161
[L_mouthFront]
9 551.629089 934.514771 339.150421 0.000081 2.804060 79.119301 1136.941284
10 551.629089 934.514771 339.150421 0.000081 2.804060 79.119301 1136.941284
11 551.629089 934.514771 339.150421 0.000081 2.804060 79.119301 1136.941284
[mouthGun]
9 55.332661 1627.420898 0.000000 0.000023 0.000009 -11.038128 1628.361328
10 55.332661 1627.420898 0.000000 0.000023 0.000009 -11.038128 1628.361328
11 55.332661 1627.420898 0.000000 0.000023 0.000009 -11.038128 1628.361328
[R_Mouth01]
9 554.442383 7.659197 -838.223938 29.795891 -23.759109 109.605331 1005.029541
10 554.442383 7.659197 -838.223938 29.795891 -23.759109 109.605331 1005.029541
11 554.442383 7.659197 -838.223938 29.795891 -23.759109 109.605331 1005.029541
[R_mouthFront]
9 551.629089 934.514282 -339.151367 0.000029 -2.803930 79.119133 1136.941162
10 551.629089 934.514282 -339.151367 0.000029 -2.803930 79.119133 1136.941162
11 551.629089 934.514282 -339.151367 0.000029 -2.803930 79.119133 1136.941162
[TopMouth]
9 461.269867 -56.106091 -0.008583 -0.000059 -0.000268 92.025169 464.669525
10 461.269867 -56.106091 -0.008583 -0.000059 -0.000268 92.025169 464.669525
11 461.269867 -56.106091 -0.008583 -0.000059 -0.000268 92.025169 464.669525
[weapon_bone]
9 -987.239868 1448.372803 0.001431 0.000000 89.965736 -31.038221 1752.833740
10 -987.239868 1448.372803 0.001431 0.000000 89.965736 -31.038221 1752.833740
11 -987.239868 1448.372803 0.001431 0.000000 89.965736 -31.038221 1752.833740
